<svg width="96" height="96" viewBox="0 0 96 96" fill="none" xmlns="http://www.w3.org/2000/svg">
  <rect width="96" height="96" rx="20" fill="#0B1220"/>
  <path d="M48 10L82 22V48C82 69.5 68.2 84.6 48 92C27.8 84.6 14 69.5 14 48V22L48 10Z" fill="#111827" stroke="#38BDF8" stroke-width="4" stroke-linejoin="round"/>
  <circle cx="48" cy="41" r="12" fill="#38BDF8"/>
  <path d="M28 70C30.5 58.5 38.2 53 48 53C57.8 53 65.5 58.5 68 70" stroke="#38BDF8" stroke-width="5" stroke-linecap="round"/>
  <circle cx="24" cy="34" r="4" fill="#A7F3D0"/>
  <circle cx="72" cy="34" r="4" fill="#A7F3D0"/>
  <circle cx="48" cy="82" r="4" fill="#A7F3D0"/>
  <path d="M28 35L37 39" stroke="#A7F3D0" stroke-width="2.5" stroke-linecap="round"/>
  <path d="M68 35L59 39" stroke="#A7F3D0" stroke-width="2.5" stroke-linecap="round"/>
  <path d="M48 74V78" stroke="#A7F3D0" stroke-width="2.5" stroke-linecap="round"/>
</svg>
